{
	"asset":{
		"generator":"Khronos glTF Blender I/O v3.6.28",
		"version":"2.0"
	},
	"scene":0,
	"scenes":[
		{
			"name":"Scene",
			"nodes":[
				0
			]
		}
	],
	"nodes":[
		{
			"mesh":0,
			"name":"Mesh_low"
		}
	],
	"materials":[
		{
			"doubleSided":true,
			"name":"Material1.001",
			"pbrMetallicRoughness":{
				"baseColorTexture":{
					"index":0
				},
				"metallicFactor":0,
				"roughnessFactor":0.800000011920929
			}
		}
	],
	"meshes":[
		{
			"name":"mesh",
			"primitives":[
				{
					"attributes":{
						"POSITION":0,
						"NORMAL":1,
						"TEXCOORD_0":2
					},
					"indices":3,
					"material":0
				}
			]
		}
	],
	"textures":[
		{
			"sampler":0,
			"source":0
		}
	],
	"images":[
		{
			"mimeType":"image/png",
			"name":"\u0430\u043b\u044c\u0431\u0435\u0434\u0443\u0448\u043a\u0430_albedo",
			"uri":"%D0%B0%D0%BB%D1%8C%D0%B1%D0%B5%D0%B4%D1%83%D1%88%D0%BA%D0%B0_albedo.png"
		}
	],
	"accessors":[
		{
			"bufferView":0,
			"componentType":5126,
			"count":6134,
			"max":[
				0.5549217462539673,
				0.5996387004852295,
				0.3611806035041809
			],
			"min":[
				-0.5559776425361633,
				-0.5990874767303467,
				-0.35968902707099915
			],
			"type":"VEC3"
		},
		{
			"bufferView":1,
			"componentType":5126,
			"count":6134,
			"type":"VEC3"
		},
		{
			"bufferView":2,
			"componentType":5126,
			"count":6134,
			"type":"VEC2"
		},
		{
			"bufferView":3,
			"componentType":5123,
			"count":31038,
			"type":"SCALAR"
		}
	],
	"bufferViews":[
		{
			"buffer":0,
			"byteLength":73608,
			"byteOffset":0,
			"target":34962
		},
		{
			"buffer":0,
			"byteLength":73608,
			"byteOffset":73608,
			"target":34962
		},
		{
			"buffer":0,
			"byteLength":49072,
			"byteOffset":147216,
			"target":34962
		},
		{
			"buffer":0,
			"byteLength":62076,
			"byteOffset":196288,
			"target":34963
		}
	],
	"samplers":[
		{
			"magFilter":9729,
			"minFilter":9987
		}
	],
	"buffers":[
		{
			"byteLength":258364,
			"uri":"3f3bc0f2_de82_4e18_ad_1026111935.bin"
		}
	]
}
